<svg xmlns="http://www.w3.org/2000/svg" viewBox="0 0 64 64">
  <style>
    :root {
      --bg: #000000;
      --fg: #f38ba8;
    }
    @media (prefers-color-scheme: light) {
      :root {
        --bg: #eff1f5;
        --fg: #d20f39;
      }
    }
    .bg { fill: var(--bg); }
    .fg { fill: var(--fg); }
  </style>
  <rect class="bg" width="64" height="64" rx="12"/>
<rect class="fg" x="18" y="11" width="7" height="7"/>
  <rect class="fg" x="25" y="11" width="7" height="7"/>
  <rect class="fg" x="32" y="11" width="7" height="7"/>
  <rect class="fg" x="39" y="11" width="7" height="7"/>
  <rect class="fg" x="11" y="18" width="7" height="7"/>
  <rect class="fg" x="39" y="18" width="7" height="7"/>
  <rect class="fg" x="46" y="18" width="7" height="7"/>
  <rect class="fg" x="11" y="25" width="7" height="7"/>
  <rect class="fg" x="32" y="25" width="7" height="7"/>
  <rect class="fg" x="46" y="25" width="7" height="7"/>
  <rect class="fg" x="11" y="32" width="7" height="7"/>
  <rect class="fg" x="25" y="32" width="7" height="7"/>
  <rect class="fg" x="46" y="32" width="7" height="7"/>
  <rect class="fg" x="11" y="39" width="7" height="7"/>
  <rect class="fg" x="18" y="39" width="7" height="7"/>
  <rect class="fg" x="46" y="39" width="7" height="7"/>
  <rect class="fg" x="18" y="46" width="7" height="7"/>
  <rect class="fg" x="25" y="46" width="7" height="7"/>
  <rect class="fg" x="32" y="46" width="7" height="7"/>
  <rect class="fg" x="39" y="46" width="7" height="7"/>
</svg>